<svg width="424.44" height="251.44" xmlns="http://www.w3.org/2000/svg" xmlns:xlink="http://www.w3.org/1999/xlink">
 <title>fishAdd</title>
 <defs>
  <symbol id="svg_42" viewBox="0 0 50 50" xmlns:xlink="http://www.w3.org/1999/xlink">
   <circle id="svg_37" cx="25" cy="25" r="25" fill="#43B05C"/>
   <line id="svg_38" x1="25" y1="13" x2="25" y2="38" stroke-miterlimit="10" stroke-linejoin="round" stroke-linecap="round" stroke-width="2" stroke="#FFFFFF" fill="none"/>
   <line id="svg_39" x1="37.5" y1="25" x2="12.5" y2="25" stroke-miterlimit="10" stroke-linejoin="round" stroke-linecap="round" stroke-width="2" stroke="#FFFFFF" fill="none"/>
   <g id="svg_41"/>
   <g id="svg_45"/>
   <g id="svg_46"/>
   <g id="svg_47"/>
   <g id="svg_48"/>
   <g id="svg_49"/>
   <g id="svg_50"/>
   <g id="svg_51"/>
   <g id="svg_52"/>
   <g id="svg_53"/>
   <g id="svg_54"/>
   <g id="svg_55"/>
   <g id="svg_56"/>
   <g id="svg_57"/>
   <g id="svg_58"/>
  </symbol>
 </defs>
 <g>
  <title>background</title>
  <rect fill="none" id="canvas_background" height="253.44" width="426.44" y="-1" x="-1"/>
 </g>
 <g>
  <title>Layer 1</title>
  <g id="svg_1">
   <path d="m268.319,142.107l33.033,33.033l-30.613,54.216c-13.52,23.944 -46.147,28.399 -65.591,8.955l0,0c-19.444,-19.444 -14.989,-52.071 8.955,-65.591l54.216,-30.613z" fill="#EA8518" id="svg_2"/>
   <path d="m344.075,46.258l12.405,-26.818c0,0 -87.066,-46.654 -166.531,12.428" fill="#EA8518" id="svg_3"/>
   <g id="svg_4">
    <path d="m183.649,35.175l-51.842,0c-14.814,0 -26.823,12.009 -26.823,26.823l0,18.56" fill="#EA8518" id="svg_5"/>
    <path d="m183.649,187.984l-51.842,0c-14.814,0 -26.823,-12.009 -26.823,-26.823l0,-18.56" fill="#EA8518" id="svg_6"/>
   </g>
   <path d="m423.44,111.583c-23.17,36.91 -55.24,63.06 -91.02,78.43c-1.82,0.79 -3.66,1.54 -5.5,2.27c-1.82,0.72 -3.66,1.41 -5.5,2.07c-5.6,2.03 -11.27,3.81 -17,5.33c-2.33,0.62 -4.67,1.2 -7.01,1.73c-1.33,0.3 -2.66,0.59 -3.99,0.86c-5.11,1.06 -10.25,1.92 -15.41,2.58c-7.59,0.98 -15.24,1.53 -22.89,1.66c-1.47,0.03 -2.94,0.04 -4.41,0.03c-2.2,-0.01 -4.39,-0.05 -6.59,-0.13c-20.23,-0.75 -40.37,-4.48 -59.66,-11.18c-1.71,-0.59 -3.41,-1.21 -5.11,-1.85c-1.97,-0.75 -3.94,-1.52 -5.89,-2.34c-12.8,-5.3 -25.15,-11.98 -36.81,-20.03c-2.06,-1.41 -4.1,-2.87 -6.11,-4.37c-1.65,-1.23 -3.28,-2.49 -4.89,-3.77c-6.86,-5.47 -13.44,-11.45 -19.67,-17.94c-1.68,-1.75 -3.33,-3.53 -4.95,-5.35c-2.06,-2.3 -4.08,-4.66 -6.05,-7.09c-5.33,-6.53 -10.34,-13.5 -14.98,-20.91c4.64,-7.4 9.65,-14.37 14.98,-20.91c1.97,-2.43 3.99,-4.8 6.05,-7.11c1.62,-1.82 3.27,-3.6 4.95,-5.34c6.23,-6.49 12.8,-12.47 19.67,-17.93c1.61,-1.29 3.24,-2.54 4.89,-3.77c2.01,-1.51 4.05,-2.97 6.11,-4.39c11.65,-8.04 24.01,-14.71 36.81,-20c1.95,-0.81 3.92,-1.59 5.89,-2.33c1.69,-0.64 3.4,-1.26 5.11,-1.86c19.28,-6.72 39.43,-10.45 59.66,-11.19c2.2,-0.08 4.39,-0.13 6.59,-0.14l1.02,0c1.13,0 2.26,0.01 3.39,0.03c7.66,0.12 15.29,0.68 22.89,1.66c5.16,0.67 10.3,1.53 15.41,2.58c1.33,0.27 2.66,0.56 3.99,0.86c2.34,0.53 4.68,1.11 7.01,1.73c5.73,1.52 11.4,3.29 17,5.32c1.84,0.66 3.68,1.35 5.5,2.07c1.84,0.73 3.68,1.49 5.5,2.28c29.97,12.88 57.33,33.32 79.03,61.3l-10.2,10.2c-3.39,3.39 -3.39,8.87 0,12.26l1.83,1.83l15.1,-15.1c1.81,2.59 3.56,5.24 5.26,7.95z" fill="#F9993A" id="svg_7"/>
   <path d="m5.42,51.753c-2.136,-0.275 -4.277,-0.48 -6.42,-0.65l0,120.947c2.144,-0.17 4.285,-0.374 6.42,-0.649c36.429,-4.674 71.173,-24.608 93.264,-59.824c-22.091,-35.216 -56.835,-55.15 -93.264,-59.824z" fill="#F9993A" id="svg_8"/>
   <g id="svg_9">
    <circle cx="362.988" cy="111.581" r="24.851" fill="#FFFFFF" id="svg_10"/>
    <circle cx="362.988" cy="111.581" r="15.204" fill="#4D4D4D" id="svg_11"/>
   </g>
   <path d="m326.917,30.864l0,161.417c-9.625,3.804 -19.495,6.853 -29.513,9.132l0,-179.665c10.019,2.278 19.889,5.312 29.513,9.116z" fill="#E6E6E6" id="svg_12"/>
   <path d="m130.544,56.523l0,110.115c-10.526,-7.854 -20.429,-16.871 -29.513,-27.053l0,-56.025c9.1,-10.182 18.987,-19.199 29.513,-27.037z" fill="#E6E6E6" id="svg_13"/>
   <path d="m250.709,16.616l0,189.93c-24.233,-0.115 -48.45,-4.509 -71.355,-13.166l0,-163.582c22.889,-8.673 47.122,-13.068 71.355,-13.182z" fill="#E6E6E6" id="svg_14"/>
   <path d="m332.42,33.143l0,156.87c-1.82,0.79 -3.66,1.54 -5.5,2.27c-1.82,0.72 -3.66,1.41 -5.5,2.07l0,-165.56c1.84,0.66 3.68,1.35 5.5,2.07c1.84,0.73 3.68,1.49 5.5,2.28z" fill="#666464" id="svg_15"/>
   <path d="m304.42,23.473l0,176.21c-2.33,0.62 -4.67,1.2 -7.01,1.73c-1.33,0.3 -2.66,0.59 -3.99,0.86l0,-181.39c1.33,0.27 2.66,0.56 3.99,0.86c2.34,0.53 4.68,1.11 7.01,1.73z" fill="#666464" id="svg_16"/>
   <path d="m255.12,16.643l0,189.87c-1.47,0.03 -2.94,0.04 -4.41,0.03c-2.2,-0.01 -4.39,-0.05 -6.59,-0.13l0,-189.66c2.2,-0.08 4.39,-0.13 6.59,-0.14l1.02,0c1.13,0 2.26,0.01 3.39,0.03z" fill="#666464" id="svg_17"/>
   <path d="m184.46,27.943l0,167.29c-1.71,-0.59 -3.41,-1.21 -5.11,-1.85c-1.97,-0.75 -3.94,-1.52 -5.89,-2.34l0,-158.91c1.95,-0.81 3.92,-1.59 5.89,-2.33c1.69,-0.64 3.4,-1.26 5.11,-1.86z" fill="#666464" id="svg_18"/>
   <path d="m136.65,52.133l0,118.88c-2.06,-1.41 -4.1,-2.87 -6.11,-4.37c-1.65,-1.23 -3.28,-2.49 -4.89,-3.77l0,-102.58c1.61,-1.29 3.24,-2.54 4.89,-3.77c2.01,-1.51 4.05,-2.97 6.11,-4.39z" fill="#666464" id="svg_19"/>
   <path d="m105.98,78.223l0,66.71c-1.68,-1.75 -3.33,-3.53 -4.95,-5.35c-2.06,-2.3 -4.08,-4.66 -6.05,-7.09l0,-41.82c1.97,-2.43 3.99,-4.8 6.05,-7.11c1.62,-1.82 3.27,-3.6 4.95,-5.34z" fill="#666464" id="svg_20"/>
   <path d="m285.35,116.159l0,40.764l-52.342,14.564c-23.117,6.432 -45.997,-10.951 -45.997,-34.946l0,0c0,-23.995 22.88,-41.378 45.997,-34.946l52.342,14.564z" fill="#F9993A" id="svg_21"/>
  </g>
  <g id="svg_22"/>
  <g id="svg_23"/>
  <g id="svg_24"/>
  <g id="svg_25"/>
  <g id="svg_26"/>
  <g id="svg_27"/>
  <g id="svg_28"/>
  <g id="svg_29"/>
  <g id="svg_30"/>
  <g id="svg_31"/>
  <g id="svg_32"/>
  <g id="svg_33"/>
  <g id="svg_34"/>
  <g id="svg_35"/>
  <g id="svg_36"/>
  <g id="svg_40"/>
  <use id="svg_43" xlink:href="#svg_42" transform="matrix(0.39491966509458304,0,0,0.3905344115513074,708.2161586693676,687.0383803521119) " y="-1369.759296" x="-1081.926761"/>
  <g id="svg_44"/>
 </g>
</svg>