<svg width="424.44" height="251.44" xmlns="http://www.w3.org/2000/svg" xmlns:xlink="http://www.w3.org/1999/xlink">
 <title>fishRemove2</title>
 <defs>
  <symbol id="svg_54" viewBox="0 0 450.449 450.449" xmlns:xlink="http://www.w3.org/1999/xlink">
   <g id="svg_1">
    <g id="svg_2">
     <g id="svg_3">
      <path id="svg_4" d="m149.995,77.286l0,0c7.914,-7.914 20.746,-7.914 28.661,0l39.807,39.807l-28.661,28.661l-39.807,-39.807c-7.915,-7.914 -7.915,-20.746 0,-28.661z" fill="#CE3E3E"/>
      <path id="svg_5" d="m121.334,105.947l0,0c7.914,-7.914 20.746,-7.914 28.661,0l39.807,39.807l-28.661,28.661l-39.807,-39.807c-7.914,-7.914 -7.914,-20.746 0,-28.661z" fill="#CE3E3E"/>
     </g>
     <g id="svg_6">
      <path id="svg_7" d="m121.334,344.502l0,0c-7.914,-7.914 -7.914,-20.746 0,-28.661l39.807,-39.807l28.661,28.661l-39.807,39.807c-7.915,7.914 -20.746,7.914 -28.661,0z" fill="#CE3E3E"/>
      <path id="svg_8" d="m149.995,373.163l0,0c-7.914,-7.914 -7.914,-20.746 0,-28.661l39.807,-39.807l28.661,28.661l-39.807,39.807c-7.915,7.914 -20.747,7.914 -28.661,0z" fill="#CE3E3E"/>
     </g>
    </g>
    <path id="svg_9" d="m438.213,254.761l-67.55,67.56l-22.93,22.93c-44.51,44.52 -116.68,44.52 -161.2,0l-120.03,-120.03l120.04,-120.03c44.51,-44.51 116.68,-44.51 161.19,0l22.93,22.93l67.55,67.56c2.48,2.48 4.58,5.19 6.3,8.06l-17.07,17.07c-3.32,3.32 -4.98,7.67 -4.98,12.02c0,4.36 1.66,8.71 4.98,12.03l22.88,-22.88c0.91,11.74 -3.12,23.8 -12.11,32.78z" fill="#F74B4B"/>
    <g id="svg_10">
     <path id="svg_11" d="m98.558,225.221l0,0l-31.538,0c-37.015,0 -67.02,-30.005 -67.02,-67.019l0,0l31.538,0c37.014,0 67.02,30.006 67.02,67.019z" fill="#CE3E3E"/>
     <path id="svg_12" d="m98.558,225.221l0,0l-31.538,0c-37.015,0 -67.02,30.006 -67.02,67.019l0,0l31.538,0c37.014,0 67.02,-30.005 67.02,-67.019z" fill="#CE3E3E"/>
    </g>
    <path id="svg_13" d="m438.213,254.761l-67.55,67.56c-24.85,-24.85 -40.22,-59.18 -40.22,-97.1s15.37,-72.25 40.22,-97.1l67.55,67.56c2.48,2.48 4.58,5.19 6.3,8.06l-17.07,17.07c-3.32,3.32 -4.98,7.67 -4.98,12.02c0,4.36 1.66,8.71 4.98,12.03l22.88,-22.88c0.91,11.74 -3.12,23.8 -12.11,32.78z" fill="#CE3E3E"/>
    <g id="svg_14">
     <circle id="svg_15" cx="379.631" cy="225.221" r="22.238" fill="#FFFFFF"/>
     <circle id="svg_16" cx="379.631" cy="225.221" r="13.606" fill="#4D4D4D"/>
    </g>
    <path id="svg_17" d="m287.653,356.839l-70.398,0l0,0c0,-30.017 24.334,-54.351 54.351,-54.351l45.402,0l0,24.996c0.001,16.212 -13.142,29.355 -29.355,29.355z" fill="#CE3E3E"/>
   </g>
   <g id="svg_18"/>
   <g id="svg_19"/>
   <g id="svg_20"/>
   <g id="svg_21"/>
   <g id="svg_37"/>
   <g id="svg_38"/>
   <g id="svg_39"/>
   <g id="svg_41"/>
   <g id="svg_42"/>
   <g id="svg_43"/>
   <g id="svg_45"/>
   <g id="svg_46"/>
   <g id="svg_47"/>
   <g id="svg_49"/>
   <g id="svg_50"/>
  </symbol>
  <symbol id="svg_58" viewBox="0 0 511.999 511.999" xmlns:xlink="http://www.w3.org/1999/xlink">
   <polygon id="svg_51" points="108.279,102.639 108.279,65.982 11.279,159.034 108.279,252.087 108.279,215.43   345.14,215.43 345.14,102.639 " fill="#FFC107"/>
   <polygon id="svg_53" points="403.72,409.36 403.72,446.017 500.72,352.964 403.72,259.912 403.72,296.569   166.859,296.569 166.859,409.36 " fill="#00BCD4"/>
   <g id="svg_57">
    <path id="svg_61" d="m356.419,215.43l0,-112.791c0,-6.229 -5.05,-11.279 -11.279,-11.279l-225.582,0l0,-25.378c0,-4.52 -2.698,-8.603 -6.855,-10.376c-4.157,-1.773 -8.971,-0.893 -12.232,2.236l-97,93.052c-2.218,2.129 -3.471,5.068 -3.471,8.14s1.253,6.013 3.471,8.139l97,93.052c2.142,2.055 4.955,3.14 7.811,3.14c1.492,0 2.996,-0.296 4.421,-0.903c4.157,-1.773 6.855,-5.856 6.855,-10.376l0,-25.378l225.582,0c6.229,0.001 11.279,-5.049 11.279,-11.278zm-22.558,-11.279l-225.582,0c-6.229,0 -11.279,5.049 -11.279,11.279l0,10.208l-69.428,-66.603l69.428,-66.602l0,10.206c0,6.229 5.05,11.279 11.279,11.279l225.581,0l0,90.233l0.001,0z" fill="#231F20"/>
    <path id="svg_62" d="m508.528,344.825l-97,-93.052c-3.262,-3.129 -8.077,-4.007 -12.232,-2.236c-4.157,1.773 -6.855,5.856 -6.855,10.376l0,25.378l-225.582,0c-6.229,0 -11.279,5.05 -11.279,11.279l0,112.791c0,6.229 5.05,11.279 11.279,11.279l225.581,0l0,25.378c0,4.52 2.698,8.603 6.855,10.376c1.427,0.608 2.93,0.905 4.421,0.903c2.856,0 5.668,-1.084 7.811,-3.14l97,-93.052c2.217,-2.127 3.471,-5.067 3.471,-8.139s-1.252,-6.014 -3.47,-8.141zm-93.528,74.742l0,-10.207c0,-6.229 -5.05,-11.279 -11.279,-11.279l-225.582,0l0,-90.233l225.581,0c6.229,0 11.279,-5.05 11.279,-11.279l0,-10.208l69.428,66.603l-69.427,66.603z" fill="#231F20"/>
    <path id="svg_63" d="m278.131,341.685l-57.523,0c-6.229,0 -11.279,5.05 -11.279,11.279c0,6.229 5.05,11.279 11.279,11.279l57.523,0c6.229,0 11.279,-5.05 11.279,-11.279c0,-6.229 -5.05,-11.279 -11.279,-11.279z" fill="#231F20"/>
    <path id="svg_64" d="m324.375,341.685l-5.64,0c-6.229,0 -11.279,5.05 -11.279,11.279c0,6.229 5.05,11.279 11.279,11.279l5.64,0c6.229,0 11.279,-5.05 11.279,-11.279c0,-6.229 -5.05,-11.279 -11.279,-11.279z" fill="#231F20"/>
    <path id="svg_65" d="m239.782,170.313l57.523,0c6.229,0 11.279,-5.05 11.279,-11.279s-5.05,-11.279 -11.279,-11.279l-57.523,0c-6.229,0 -11.279,5.05 -11.279,11.279s5.049,11.279 11.279,11.279z" fill="#231F20"/>
    <path id="svg_66" d="m193.538,170.313l5.64,0c6.229,0 11.279,-5.05 11.279,-11.279s-5.05,-11.279 -11.279,-11.279l-5.64,0c-6.229,0 -11.279,5.05 -11.279,11.279s5.049,11.279 11.279,11.279z" fill="#231F20"/>
   </g>
   <g id="svg_67"/>
   <g id="svg_68"/>
   <g id="svg_69"/>
   <g id="svg_70"/>
   <g id="svg_71"/>
   <g id="svg_72"/>
   <g id="svg_73"/>
   <g id="svg_74"/>
   <g id="svg_75"/>
   <g id="svg_76"/>
   <g id="svg_77"/>
   <g id="svg_78"/>
   <g id="svg_79"/>
   <g id="svg_80"/>
   <g id="svg_81"/>
  </symbol>
 </defs>
 <g>
  <title>background</title>
  <rect fill="none" id="canvas_background" height="253.44" width="426.44" y="-1" x="-1"/>
 </g>
 <g>
  <title>Layer 1</title>
  <g id="svg_22"/>
  <g id="svg_23"/>
  <g id="svg_24"/>
  <g id="svg_25"/>
  <g id="svg_26"/>
  <g id="svg_27"/>
  <g id="svg_28"/>
  <g id="svg_29"/>
  <g id="svg_30"/>
  <g id="svg_31"/>
  <g id="svg_32"/>
  <g id="svg_33"/>
  <g id="svg_34"/>
  <g id="svg_35"/>
  <g id="svg_36"/>
  <g id="svg_40"/>
  <g id="svg_44"/>
  <g id="svg_48"/>
  <g id="svg_52"/>
  <use id="svg_55" xlink:href="#svg_54" transform="matrix(1.6683424389568446,0,0,1.4302661539396806,-94.70977774749761,-69.27573870110801) " y="10.869988" x="-28.524061"/>
  <g id="svg_56"/>
  <use id="svg_59" xlink:href="#svg_58" transform="matrix(0.4918113806170417,0,0,0.45324563775219306,-301.75283577541717,-168.17475859809267) " y="695.751472" x="1114.602297"/>
  <g id="svg_60"/>
 </g>
</svg>