<svg width="424.44" height="251.44" xmlns="http://www.w3.org/2000/svg" xmlns:xlink="http://www.w3.org/1999/xlink">
 <title>fishRemove</title>
 <defs>
  <symbol id="svg_46" viewBox="0 0 512 512" xmlns:xlink="http://www.w3.org/1999/xlink">
   <circle id="svg_1" cx="256" cy="256" r="256" fill="#E04F5F"/>
   <rect id="svg_2" x="119.68" y="240" width="272" height="32" fill="#FFFFFF"/>
   <g id="svg_3"/>
   <g id="svg_4"/>
   <g id="svg_5"/>
   <g id="svg_6"/>
   <g id="svg_7"/>
   <g id="svg_8"/>
   <g id="svg_9"/>
   <g id="svg_10"/>
   <g id="svg_11"/>
   <g id="svg_12"/>
   <g id="svg_13"/>
   <g id="svg_14"/>
   <g id="svg_15"/>
   <g id="svg_16"/>
   <g id="svg_17"/>
  </symbol>
 </defs>
 <g>
  <title>background</title>
  <rect fill="none" id="canvas_background" height="253.44" width="426.44" y="-1" x="-1"/>
 </g>
 <g>
  <title>Layer 1</title>
  <g id="svg_22"/>
  <g id="svg_23"/>
  <g id="svg_24"/>
  <g id="svg_25"/>
  <g id="svg_26"/>
  <g id="svg_27"/>
  <g id="svg_28"/>
  <g id="svg_29"/>
  <g id="svg_30"/>
  <g id="svg_31"/>
  <g id="svg_32"/>
  <g id="svg_33"/>
  <g id="svg_34"/>
  <g id="svg_35"/>
  <g id="svg_36"/>
  <g id="svg_40"/>
  <g id="svg_44"/>
  <g id="svg_48"/>
  <g id="svg_52"/>
  <g stroke="null" id="svg_98">
   <g stroke="null" transform="matrix(0.9560914440284244,0,0,1.1253971370052223,-5175.0904800033195,-3673.151526904861) " id="svg_71">
    <g stroke="null" id="svg_72">
     <path stroke="null" id="svg_73" fill="#42D153" d="m5502.658025,3369.151402l0,0l-28.012,0c-32.874,0.001 -59.524,-26.65 -59.524,-59.524l0,0l28.012,0c32.874,0 59.524,26.65 59.524,59.524z"/>
     <path stroke="null" id="svg_74" fill="#42D153" d="m5502.658025,3369.152402l0,0l-28.012,0c-32.874,0 -59.524,26.65 -59.524,59.524l0,0l28.012,0c32.874,0 59.524,-26.65 59.524,-59.524z"/>
    </g>
    <path stroke="null" id="svg_75" fill="#42D153" d="m5480.702025,3369.152402c71.933,-48.892 116.046,-103.729 203.024,-103.729c36.572,0 73.047,4.643 108.413,13.801l-15.785,53.122l-163.598,18.157l-132.054,18.649z"/>
    <path stroke="null" id="svg_76" fill="#53F26D" d="m5831.498025,3381.711402l18.09,0c-3.55,13.36 -12.91,25.34 -28.08,31.44c-0.52,0.21 -1.04,0.41 -1.57,0.6c-12.05,4.4 -24.27,8.19 -36.6,11.39c-32.65,8.46 -66.13,12.68 -99.6,12.68c-46.7,0 -93.41,-8.22 -137.83,-24.66c-29.7,-10.99 -58.39,-25.66 -85.37,-44c96.3,-65.46 214.2,-84.11 322.82,-55.99c12.32,3.19 24.54,6.98 36.59,11.38c18.38,6.72 28.66,21.88 30.84,38.03l-0.16,0c-10.561,0 -19.13,8.57 -19.13,19.13z"/>
    <path stroke="null" id="svg_77" fill="#92F49E" d="m5821.507025,3413.151402c-0.52,0.21 -1.04,0.41 -1.57,0.6c-12.05,4.4 -24.27,8.19 -36.6,11.39c-32.65,8.46 -66.13,12.68 -99.6,12.68c-46.7,0 -93.41,-8.22 -137.83,-24.66c76.28,-28.24 159.27,-32.23 237.45,-11.99c12.32,3.19 24.54,6.98 36.59,11.38c0.531,0.189 1.051,0.39 1.56,0.6z"/>
    <path stroke="null" id="svg_78" fill="#42D153" d="m5831.499025,3381.711402l23.632,0c-3.507,12.263 -12.305,23.186 -26.374,28.701c-14.898,5.844 -30.061,10.754 -45.416,14.728c-7.736,-17.066 -12.05,-36.023 -12.05,-55.978c0,-19.966 4.314,-38.913 12.061,-55.989c15.355,3.974 30.518,8.873 45.416,14.717c16.311,6.397 25.534,20.073 27.649,34.694l-5.791,0c-10.562,0 -19.127,8.565 -19.127,19.127z"/>
    <g stroke="null" id="svg_79">
     <circle stroke="null" id="svg_80" fill="#FFFFFF" r="18.752001" cy="3364.368402" cx="5801.608025"/>
     <circle stroke="null" id="svg_81" fill="#4D4D4D" r="11.473" cy="3364.368402" cx="5801.608025"/>
    </g>
    <path stroke="null" id="svg_82" fill="#42D153" d="m5656.307025,3485.743402l0,0c-11.933,-22.244 -3.574,-49.95 18.67,-61.883l46.244,-24.807l0,0c11.933,22.244 3.574,49.95 -18.671,61.883l-46.243,24.807z"/>
   </g>
   <g stroke="null" transform="matrix(0.9560914440284244,0,0,1.1253971370052223,-5175.0904800033195,-3673.151526904861) " id="svg_83"/>
   <g stroke="null" transform="matrix(0.9560914440284244,0,0,1.1253971370052223,-5175.0904800033195,-3673.151526904861) " id="svg_84"/>
   <g stroke="null" transform="matrix(0.9560914440284244,0,0,1.1253971370052223,-5175.0904800033195,-3673.151526904861) " id="svg_85"/>
   <g stroke="null" transform="matrix(0.9560914440284244,0,0,1.1253971370052223,-5175.0904800033195,-3673.151526904861) " id="svg_86"/>
   <g stroke="null" transform="matrix(0.9560914440284244,0,0,1.1253971370052223,-5175.0904800033195,-3673.151526904861) " id="svg_87"/>
   <g stroke="null" transform="matrix(0.9560914440284244,0,0,1.1253971370052223,-5175.0904800033195,-3673.151526904861) " id="svg_88"/>
   <g stroke="null" transform="matrix(0.9560914440284244,0,0,1.1253971370052223,-5175.0904800033195,-3673.151526904861) " id="svg_89"/>
   <g stroke="null" transform="matrix(0.9560914440284244,0,0,1.1253971370052223,-5175.0904800033195,-3673.151526904861) " id="svg_90"/>
   <g stroke="null" transform="matrix(0.9560914440284244,0,0,1.1253971370052223,-5175.0904800033195,-3673.151526904861) " id="svg_91"/>
   <g stroke="null" transform="matrix(0.9560914440284244,0,0,1.1253971370052223,-5175.0904800033195,-3673.151526904861) " id="svg_92"/>
   <g stroke="null" transform="matrix(0.9560914440284244,0,0,1.1253971370052223,-5175.0904800033195,-3673.151526904861) " id="svg_93"/>
   <g stroke="null" transform="matrix(0.9560914440284244,0,0,1.1253971370052223,-5175.0904800033195,-3673.151526904861) " id="svg_94"/>
   <g stroke="null" transform="matrix(0.9560914440284244,0,0,1.1253971370052223,-5175.0904800033195,-3673.151526904861) " id="svg_95"/>
   <g stroke="null" transform="matrix(0.9560914440284244,0,0,1.1253971370052223,-5175.0904800033195,-3673.151526904861) " id="svg_96"/>
   <g stroke="null" transform="matrix(0.9560914440284244,0,0,1.1253971370052223,-5175.0904800033195,-3673.151526904861) " id="svg_97"/>
  </g>
  <use id="svg_47" xlink:href="#svg_46" transform="matrix(0.39321121573486906,0,0,0.38700237555427713,-191.99984755045318,-76.3245235787789) " y="588.364903" x="1200.601485"/>
 </g>
</svg>